<svg height="511pt" viewBox="1 -13 511.9999 511" width="511pt" xmlns="http://www.w3.org/2000/svg"><path d="m7.605469 374.820312h103.5625v103.785157h-103.5625zm0 0" fill="#f74866"/><path d="m138.679688 271.039062h103.566406v207.566407h-103.566406zm0 0" fill="#ffc627"/><path d="m269.757812 167.253906v311.351563h103.5625v-311.351563zm0 0" fill="#efa233"/><path d="m400.832031 63.46875v415.136719h103.5625v-415.136719zm0 0" fill="#79bbe8"/><path d="m111.167969 367.21875h-103.5625c-4.199219 0-7.605469 3.402344-7.605469 7.601562v103.785157c0 4.199219 3.40625 7.605469 7.605469 7.605469h103.5625c4.199219 0 7.605469-3.40625 7.605469-7.605469v-103.785157c0-4.199218-3.402344-7.601562-7.605469-7.601562zm-7.601563 103.78125h-88.355468v-88.574219h88.355468zm0 0"/><path d="m242.246094 263.433594h-103.566406c-4.199219 0-7.601563 3.40625-7.601563 7.605468v115.578126c0 4.199218 3.402344 7.605468 7.601563 7.605468 4.199218 0 7.605468-3.40625 7.605468-7.605468v-107.976563h88.355469v192.359375h-88.355469v-53.964844c0-4.199218-3.40625-7.605468-7.605468-7.605468-4.199219 0-7.601563 3.40625-7.601563 7.605468v61.570313c0 4.199219 3.402344 7.605469 7.601563 7.605469h103.566406c4.199218 0 7.601562-3.40625 7.601562-7.605469v-207.566407c0-4.199218-3.402344-7.605468-7.601562-7.605468zm0 0"/><path d="m373.320312 159.648438h-103.566406c-4.199218 0-7.601562 3.40625-7.601562 7.605468v311.351563c0 4.199219 3.402344 7.605469 7.601562 7.605469h103.566406c4.199219 0 7.601563-3.40625 7.601563-7.605469v-311.351563c.003906-4.199218-3.402344-7.605468-7.601563-7.605468zm-7.605468 311.351562h-88.355469v-296.144531h88.355469zm0 0"/><path d="m504.394531 127.574219c4.199219 0 7.605469-3.402344 7.605469-7.605469v-56.5c0-4.199219-3.40625-7.601562-7.605469-7.601562h-103.5625c-4.199219 0-7.605469 3.402343-7.605469 7.601562v415.136719c0 4.199219 3.40625 7.605469 7.605469 7.605469h103.5625c4.199219 0 7.605469-3.40625 7.605469-7.605469v-328.21875c0-4.199219-3.40625-7.601563-7.605469-7.601563s-7.601562 3.402344-7.601562 7.601563v320.613281h-88.359375v-399.925781h88.359375v48.894531c0 4.203125 3.402343 7.605469 7.601562 7.605469zm0 0"/><path d="m7.613281 198.875c1.175781 0 2.367188-.273438 3.484375-.851562l312.136719-161.453126-7.710937 24.234376c-1.273438 4.003906.9375 8.277343 4.941406 9.550781.765625.246093 1.542968.359375 2.304687.359375 3.222657 0 6.214844-2.0625 7.246094-5.296875l13.277344-41.730469c1.273437-4-.941407-8.277344-4.941407-9.550781l-41.726562-13.277344c-4-1.273437-8.28125.9375-9.554688 4.941406-1.273437 4 .941407 8.277344 4.941407 9.550781l24.234375 7.710938-312.132813 161.453125c-3.730469 1.929687-5.191406 6.515625-3.261719 10.246094 1.351563 2.613281 4.007813 4.113281 6.761719 4.113281zm0 0"/></svg>